G04 (created by PCBNEW (2013-07-07 BZR 4022)-stable) date 30-Oct-13 5:57:46 PM*
%MOIN*%
G04 Gerber Fmt 3.4, Leading zero omitted, Abs format*
%FSLAX34Y34*%
G01*
G70*
G90*
G04 APERTURE LIST*
%ADD10C,0.005*%
%ADD11C,0.00393701*%
%ADD12C,0.00787402*%
%ADD13C,0.011811*%
G04 APERTURE END LIST*
G54D10*
G54D11*
X42154Y-45994D02*
X42154Y-60752D01*
X62900Y-45998D02*
X42156Y-45998D01*
X62900Y-60750D02*
X42150Y-60750D01*
X62900Y-46000D02*
X62900Y-60750D01*
X62900Y-46000D02*
X62900Y-46000D01*
G54D12*
X45227Y-48203D02*
X45464Y-48440D01*
X45464Y-48203D02*
X45227Y-48440D01*
X45227Y-49203D02*
X45464Y-49440D01*
X45464Y-49203D02*
X45227Y-49440D01*
X45227Y-50203D02*
X45464Y-50440D01*
X45464Y-50203D02*
X45227Y-50440D01*
X45227Y-51203D02*
X45464Y-51440D01*
X45464Y-51203D02*
X45227Y-51440D01*
X45227Y-52203D02*
X45464Y-52440D01*
X45464Y-52203D02*
X45227Y-52440D01*
X45227Y-53203D02*
X45464Y-53440D01*
X45464Y-53203D02*
X45227Y-53440D01*
X45227Y-54203D02*
X45464Y-54440D01*
X45464Y-54203D02*
X45227Y-54440D01*
X45227Y-55203D02*
X45464Y-55440D01*
X45464Y-55203D02*
X45227Y-55440D01*
X48375Y-58375D02*
X48612Y-58612D01*
X48612Y-58375D02*
X48375Y-58612D01*
X49375Y-58375D02*
X49612Y-58612D01*
X49612Y-58375D02*
X49375Y-58612D01*
X59809Y-48499D02*
X60046Y-48736D01*
X60046Y-48499D02*
X59809Y-48736D01*
X59809Y-49499D02*
X60046Y-49736D01*
X60046Y-49499D02*
X59809Y-49736D01*
X59809Y-50499D02*
X60046Y-50736D01*
X60046Y-50499D02*
X59809Y-50736D01*
X59809Y-51499D02*
X60046Y-51736D01*
X60046Y-51499D02*
X59809Y-51736D01*
X59809Y-52499D02*
X60046Y-52736D01*
X60046Y-52499D02*
X59809Y-52736D01*
X59809Y-53499D02*
X60046Y-53736D01*
X60046Y-53499D02*
X59809Y-53736D01*
X59809Y-54499D02*
X60046Y-54736D01*
X60046Y-54499D02*
X59809Y-54736D01*
X59809Y-55499D02*
X60046Y-55736D01*
X60046Y-55499D02*
X59809Y-55736D01*
X47626Y-48326D02*
G75*
G03X47626Y-48326I-160J0D01*
G74*
G01*
X47626Y-49326D02*
G75*
G03X47626Y-49326I-160J0D01*
G74*
G01*
X47626Y-50326D02*
G75*
G03X47626Y-50326I-160J0D01*
G74*
G01*
X47626Y-51326D02*
G75*
G03X47626Y-51326I-160J0D01*
G74*
G01*
X47626Y-52326D02*
G75*
G03X47626Y-52326I-160J0D01*
G74*
G01*
X47626Y-53326D02*
G75*
G03X47626Y-53326I-160J0D01*
G74*
G01*
X47626Y-54326D02*
G75*
G03X47626Y-54326I-160J0D01*
G74*
G01*
X47626Y-55326D02*
G75*
G03X47626Y-55326I-160J0D01*
G74*
G01*
X47626Y-56326D02*
G75*
G03X47626Y-56326I-160J0D01*
G74*
G01*
X50626Y-48326D02*
G75*
G03X50626Y-48326I-160J0D01*
G74*
G01*
X50626Y-49326D02*
G75*
G03X50626Y-49326I-160J0D01*
G74*
G01*
X50626Y-50326D02*
G75*
G03X50626Y-50326I-160J0D01*
G74*
G01*
X50626Y-51326D02*
G75*
G03X50626Y-51326I-160J0D01*
G74*
G01*
X50626Y-52326D02*
G75*
G03X50626Y-52326I-160J0D01*
G74*
G01*
X50626Y-53326D02*
G75*
G03X50626Y-53326I-160J0D01*
G74*
G01*
X50626Y-54326D02*
G75*
G03X50626Y-54326I-160J0D01*
G74*
G01*
X50626Y-55326D02*
G75*
G03X50626Y-55326I-160J0D01*
G74*
G01*
X50626Y-56326D02*
G75*
G03X50626Y-56326I-160J0D01*
G74*
G01*
X51276Y-58636D02*
G75*
G03X51276Y-58636I-160J0D01*
G74*
G01*
X52276Y-58636D02*
G75*
G03X52276Y-58636I-160J0D01*
G74*
G01*
X51656Y-47573D02*
X51656Y-48023D01*
X51431Y-47798D02*
X51881Y-47798D01*
X51680Y-49969D02*
X51680Y-50419D01*
X51455Y-50194D02*
X51905Y-50194D01*
X51686Y-48755D02*
X51686Y-49205D01*
X51461Y-48980D02*
X51911Y-48980D01*
X51686Y-51261D02*
X51686Y-51711D01*
X51461Y-51486D02*
X51911Y-51486D01*
X51692Y-55117D02*
X51692Y-55567D01*
X51467Y-55342D02*
X51917Y-55342D01*
X51700Y-52561D02*
X51700Y-53011D01*
X51475Y-52786D02*
X51925Y-52786D01*
X51714Y-56447D02*
X51714Y-56897D01*
X51489Y-56672D02*
X51939Y-56672D01*
X51726Y-53895D02*
X51726Y-54345D01*
X51501Y-54120D02*
X51951Y-54120D01*
X53738Y-58515D02*
X53738Y-58965D01*
X53513Y-58740D02*
X53963Y-58740D01*
X57656Y-47573D02*
X57656Y-48023D01*
X57431Y-47798D02*
X57881Y-47798D01*
X57680Y-49969D02*
X57680Y-50419D01*
X57455Y-50194D02*
X57905Y-50194D01*
X57686Y-48755D02*
X57686Y-49205D01*
X57461Y-48980D02*
X57911Y-48980D01*
X57686Y-51261D02*
X57686Y-51711D01*
X57461Y-51486D02*
X57911Y-51486D01*
X57692Y-55117D02*
X57692Y-55567D01*
X57467Y-55342D02*
X57917Y-55342D01*
X57700Y-52561D02*
X57700Y-53011D01*
X57475Y-52786D02*
X57925Y-52786D01*
X57714Y-56447D02*
X57714Y-56897D01*
X57489Y-56672D02*
X57939Y-56672D01*
X57726Y-53895D02*
X57726Y-54345D01*
X57501Y-54120D02*
X57951Y-54120D01*
X59738Y-58515D02*
X59738Y-58965D01*
X59513Y-58740D02*
X59963Y-58740D01*
X43906Y-47706D02*
X43906Y-46593D01*
X42793Y-46593D01*
X42793Y-47706D01*
X43906Y-47706D01*
X43906Y-60172D02*
X43906Y-59059D01*
X42793Y-59059D01*
X42793Y-60172D01*
X43906Y-60172D01*
X62252Y-47706D02*
X62252Y-46593D01*
X61139Y-46593D01*
X61139Y-47706D01*
X62252Y-47706D01*
X62252Y-60172D02*
X62252Y-59059D01*
X61139Y-59059D01*
X61139Y-60172D01*
X62252Y-60172D01*
G54D13*
X43198Y-62548D02*
X43198Y-61367D01*
X43480Y-61367D01*
X43648Y-61424D01*
X43761Y-61536D01*
X43817Y-61649D01*
X43873Y-61874D01*
X43873Y-62042D01*
X43817Y-62267D01*
X43761Y-62380D01*
X43648Y-62492D01*
X43480Y-62548D01*
X43198Y-62548D01*
X44380Y-62548D02*
X44380Y-61761D01*
X44380Y-61986D02*
X44436Y-61874D01*
X44492Y-61817D01*
X44605Y-61761D01*
X44717Y-61761D01*
X45111Y-62548D02*
X45111Y-61761D01*
X45111Y-61367D02*
X45054Y-61424D01*
X45111Y-61480D01*
X45167Y-61424D01*
X45111Y-61367D01*
X45111Y-61480D01*
X45842Y-62548D02*
X45729Y-62492D01*
X45673Y-62380D01*
X45673Y-61367D01*
X46461Y-62548D02*
X46348Y-62492D01*
X46292Y-62380D01*
X46292Y-61367D01*
X47810Y-62548D02*
X47810Y-61367D01*
X48204Y-62211D01*
X48598Y-61367D01*
X48598Y-62548D01*
X49666Y-62548D02*
X49666Y-61930D01*
X49610Y-61817D01*
X49498Y-61761D01*
X49273Y-61761D01*
X49160Y-61817D01*
X49666Y-62492D02*
X49554Y-62548D01*
X49273Y-62548D01*
X49160Y-62492D01*
X49104Y-62380D01*
X49104Y-62267D01*
X49160Y-62155D01*
X49273Y-62099D01*
X49554Y-62099D01*
X49666Y-62042D01*
X50229Y-61761D02*
X50229Y-62942D01*
X50229Y-61817D02*
X50341Y-61761D01*
X50566Y-61761D01*
X50679Y-61817D01*
X50735Y-61874D01*
X50791Y-61986D01*
X50791Y-62323D01*
X50735Y-62436D01*
X50679Y-62492D01*
X50566Y-62548D01*
X50341Y-62548D01*
X50229Y-62492D01*
X51297Y-62436D02*
X51354Y-62492D01*
X51297Y-62548D01*
X51241Y-62492D01*
X51297Y-62436D01*
X51297Y-62548D01*
X51297Y-61817D02*
X51354Y-61874D01*
X51297Y-61930D01*
X51241Y-61874D01*
X51297Y-61817D01*
X51297Y-61930D01*
X41894Y-64433D02*
X42130Y-64669D01*
X42130Y-64433D02*
X41894Y-64669D01*
X43423Y-63848D02*
X43536Y-63848D01*
X43648Y-63904D01*
X43705Y-63960D01*
X43761Y-64073D01*
X43817Y-64298D01*
X43817Y-64579D01*
X43761Y-64804D01*
X43705Y-64916D01*
X43648Y-64973D01*
X43536Y-65029D01*
X43423Y-65029D01*
X43311Y-64973D01*
X43255Y-64916D01*
X43198Y-64804D01*
X43142Y-64579D01*
X43142Y-64298D01*
X43198Y-64073D01*
X43255Y-63960D01*
X43311Y-63904D01*
X43423Y-63848D01*
X44323Y-64916D02*
X44380Y-64973D01*
X44323Y-65029D01*
X44267Y-64973D01*
X44323Y-64916D01*
X44323Y-65029D01*
X45392Y-63848D02*
X45167Y-63848D01*
X45054Y-63904D01*
X44998Y-63960D01*
X44886Y-64129D01*
X44829Y-64354D01*
X44829Y-64804D01*
X44886Y-64916D01*
X44942Y-64973D01*
X45054Y-65029D01*
X45279Y-65029D01*
X45392Y-64973D01*
X45448Y-64916D01*
X45504Y-64804D01*
X45504Y-64523D01*
X45448Y-64410D01*
X45392Y-64354D01*
X45279Y-64298D01*
X45054Y-64298D01*
X44942Y-64354D01*
X44886Y-64410D01*
X44829Y-64523D01*
X46236Y-63848D02*
X46348Y-63848D01*
X46461Y-63904D01*
X46517Y-63960D01*
X46573Y-64073D01*
X46629Y-64298D01*
X46629Y-64579D01*
X46573Y-64804D01*
X46517Y-64916D01*
X46461Y-64973D01*
X46348Y-65029D01*
X46236Y-65029D01*
X46123Y-64973D01*
X46067Y-64916D01*
X46011Y-64804D01*
X45954Y-64579D01*
X45954Y-64298D01*
X46011Y-64073D01*
X46067Y-63960D01*
X46123Y-63904D01*
X46236Y-63848D01*
X47135Y-65029D02*
X47135Y-64241D01*
X47135Y-64354D02*
X47192Y-64298D01*
X47304Y-64241D01*
X47473Y-64241D01*
X47585Y-64298D01*
X47642Y-64410D01*
X47642Y-65029D01*
X47642Y-64410D02*
X47698Y-64298D01*
X47810Y-64241D01*
X47979Y-64241D01*
X48092Y-64298D01*
X48148Y-64410D01*
X48148Y-65029D01*
X48710Y-65029D02*
X48710Y-64241D01*
X48710Y-64354D02*
X48766Y-64298D01*
X48879Y-64241D01*
X49048Y-64241D01*
X49160Y-64298D01*
X49216Y-64410D01*
X49216Y-65029D01*
X49216Y-64410D02*
X49273Y-64298D01*
X49385Y-64241D01*
X49554Y-64241D01*
X49666Y-64298D01*
X49723Y-64410D01*
X49723Y-65029D01*
X52029Y-63791D02*
X51016Y-65310D01*
X53547Y-63848D02*
X53660Y-63848D01*
X53772Y-63904D01*
X53828Y-63960D01*
X53885Y-64073D01*
X53941Y-64298D01*
X53941Y-64579D01*
X53885Y-64804D01*
X53828Y-64916D01*
X53772Y-64973D01*
X53660Y-65029D01*
X53547Y-65029D01*
X53435Y-64973D01*
X53378Y-64916D01*
X53322Y-64804D01*
X53266Y-64579D01*
X53266Y-64298D01*
X53322Y-64073D01*
X53378Y-63960D01*
X53435Y-63904D01*
X53547Y-63848D01*
X54447Y-64916D02*
X54503Y-64973D01*
X54447Y-65029D01*
X54391Y-64973D01*
X54447Y-64916D01*
X54447Y-65029D01*
X55234Y-63848D02*
X55347Y-63848D01*
X55459Y-63904D01*
X55516Y-63960D01*
X55572Y-64073D01*
X55628Y-64298D01*
X55628Y-64579D01*
X55572Y-64804D01*
X55516Y-64916D01*
X55459Y-64973D01*
X55347Y-65029D01*
X55234Y-65029D01*
X55122Y-64973D01*
X55066Y-64916D01*
X55009Y-64804D01*
X54953Y-64579D01*
X54953Y-64298D01*
X55009Y-64073D01*
X55066Y-63960D01*
X55122Y-63904D01*
X55234Y-63848D01*
X56078Y-63960D02*
X56134Y-63904D01*
X56247Y-63848D01*
X56528Y-63848D01*
X56641Y-63904D01*
X56697Y-63960D01*
X56753Y-64073D01*
X56753Y-64185D01*
X56697Y-64354D01*
X56022Y-65029D01*
X56753Y-65029D01*
X57765Y-64241D02*
X57765Y-65029D01*
X57484Y-63791D02*
X57203Y-64635D01*
X57934Y-64635D01*
X58328Y-63848D02*
X58328Y-64073D01*
X58778Y-63848D02*
X58778Y-64073D01*
X60521Y-65479D02*
X60465Y-65422D01*
X60353Y-65254D01*
X60296Y-65141D01*
X60240Y-64973D01*
X60184Y-64691D01*
X60184Y-64466D01*
X60240Y-64185D01*
X60296Y-64016D01*
X60353Y-63904D01*
X60465Y-63735D01*
X60521Y-63679D01*
X61590Y-65029D02*
X60915Y-65029D01*
X61252Y-65029D02*
X61252Y-63848D01*
X61140Y-64016D01*
X61027Y-64129D01*
X60915Y-64185D01*
X62265Y-64354D02*
X62152Y-64298D01*
X62096Y-64241D01*
X62040Y-64129D01*
X62040Y-64073D01*
X62096Y-63960D01*
X62152Y-63904D01*
X62265Y-63848D01*
X62490Y-63848D01*
X62602Y-63904D01*
X62658Y-63960D01*
X62715Y-64073D01*
X62715Y-64129D01*
X62658Y-64241D01*
X62602Y-64298D01*
X62490Y-64354D01*
X62265Y-64354D01*
X62152Y-64410D01*
X62096Y-64466D01*
X62040Y-64579D01*
X62040Y-64804D01*
X62096Y-64916D01*
X62152Y-64973D01*
X62265Y-65029D01*
X62490Y-65029D01*
X62602Y-64973D01*
X62658Y-64916D01*
X62715Y-64804D01*
X62715Y-64579D01*
X62658Y-64466D01*
X62602Y-64410D01*
X62490Y-64354D01*
X64121Y-65029D02*
X64121Y-63848D01*
X64627Y-65029D02*
X64627Y-64410D01*
X64571Y-64298D01*
X64458Y-64241D01*
X64290Y-64241D01*
X64177Y-64298D01*
X64121Y-64354D01*
X65358Y-65029D02*
X65246Y-64973D01*
X65189Y-64916D01*
X65133Y-64804D01*
X65133Y-64466D01*
X65189Y-64354D01*
X65246Y-64298D01*
X65358Y-64241D01*
X65527Y-64241D01*
X65639Y-64298D01*
X65696Y-64354D01*
X65752Y-64466D01*
X65752Y-64804D01*
X65696Y-64916D01*
X65639Y-64973D01*
X65527Y-65029D01*
X65358Y-65029D01*
X66427Y-65029D02*
X66314Y-64973D01*
X66258Y-64860D01*
X66258Y-63848D01*
X67327Y-64973D02*
X67214Y-65029D01*
X66989Y-65029D01*
X66877Y-64973D01*
X66820Y-64860D01*
X66820Y-64410D01*
X66877Y-64298D01*
X66989Y-64241D01*
X67214Y-64241D01*
X67327Y-64298D01*
X67383Y-64410D01*
X67383Y-64523D01*
X66820Y-64635D01*
X67833Y-64973D02*
X67945Y-65029D01*
X68170Y-65029D01*
X68283Y-64973D01*
X68339Y-64860D01*
X68339Y-64804D01*
X68283Y-64691D01*
X68170Y-64635D01*
X68002Y-64635D01*
X67889Y-64579D01*
X67833Y-64466D01*
X67833Y-64410D01*
X67889Y-64298D01*
X68002Y-64241D01*
X68170Y-64241D01*
X68283Y-64298D01*
X68733Y-65479D02*
X68789Y-65422D01*
X68901Y-65254D01*
X68958Y-65141D01*
X69014Y-64973D01*
X69070Y-64691D01*
X69070Y-64466D01*
X69014Y-64185D01*
X68958Y-64016D01*
X68901Y-63904D01*
X68789Y-63735D01*
X68733Y-63679D01*
G54D12*
X42130Y-66110D02*
G75*
G03X42130Y-66110I-160J0D01*
G74*
G01*
G54D13*
X43423Y-65407D02*
X43536Y-65407D01*
X43648Y-65463D01*
X43705Y-65519D01*
X43761Y-65632D01*
X43817Y-65857D01*
X43817Y-66138D01*
X43761Y-66363D01*
X43705Y-66475D01*
X43648Y-66532D01*
X43536Y-66588D01*
X43423Y-66588D01*
X43311Y-66532D01*
X43255Y-66475D01*
X43198Y-66363D01*
X43142Y-66138D01*
X43142Y-65857D01*
X43198Y-65632D01*
X43255Y-65519D01*
X43311Y-65463D01*
X43423Y-65407D01*
X44323Y-66475D02*
X44380Y-66532D01*
X44323Y-66588D01*
X44267Y-66532D01*
X44323Y-66475D01*
X44323Y-66588D01*
X45054Y-65913D02*
X44942Y-65857D01*
X44886Y-65800D01*
X44829Y-65688D01*
X44829Y-65632D01*
X44886Y-65519D01*
X44942Y-65463D01*
X45054Y-65407D01*
X45279Y-65407D01*
X45392Y-65463D01*
X45448Y-65519D01*
X45504Y-65632D01*
X45504Y-65688D01*
X45448Y-65800D01*
X45392Y-65857D01*
X45279Y-65913D01*
X45054Y-65913D01*
X44942Y-65969D01*
X44886Y-66025D01*
X44829Y-66138D01*
X44829Y-66363D01*
X44886Y-66475D01*
X44942Y-66532D01*
X45054Y-66588D01*
X45279Y-66588D01*
X45392Y-66532D01*
X45448Y-66475D01*
X45504Y-66363D01*
X45504Y-66138D01*
X45448Y-66025D01*
X45392Y-65969D01*
X45279Y-65913D01*
X46629Y-66588D02*
X45954Y-66588D01*
X46292Y-66588D02*
X46292Y-65407D01*
X46179Y-65575D01*
X46067Y-65688D01*
X45954Y-65744D01*
X47135Y-66588D02*
X47135Y-65800D01*
X47135Y-65913D02*
X47192Y-65857D01*
X47304Y-65800D01*
X47473Y-65800D01*
X47585Y-65857D01*
X47642Y-65969D01*
X47642Y-66588D01*
X47642Y-65969D02*
X47698Y-65857D01*
X47810Y-65800D01*
X47979Y-65800D01*
X48092Y-65857D01*
X48148Y-65969D01*
X48148Y-66588D01*
X48710Y-66588D02*
X48710Y-65800D01*
X48710Y-65913D02*
X48766Y-65857D01*
X48879Y-65800D01*
X49048Y-65800D01*
X49160Y-65857D01*
X49216Y-65969D01*
X49216Y-66588D01*
X49216Y-65969D02*
X49273Y-65857D01*
X49385Y-65800D01*
X49554Y-65800D01*
X49666Y-65857D01*
X49723Y-65969D01*
X49723Y-66588D01*
X52029Y-65350D02*
X51016Y-66869D01*
X53547Y-65407D02*
X53660Y-65407D01*
X53772Y-65463D01*
X53828Y-65519D01*
X53885Y-65632D01*
X53941Y-65857D01*
X53941Y-66138D01*
X53885Y-66363D01*
X53828Y-66475D01*
X53772Y-66532D01*
X53660Y-66588D01*
X53547Y-66588D01*
X53435Y-66532D01*
X53378Y-66475D01*
X53322Y-66363D01*
X53266Y-66138D01*
X53266Y-65857D01*
X53322Y-65632D01*
X53378Y-65519D01*
X53435Y-65463D01*
X53547Y-65407D01*
X54447Y-66475D02*
X54503Y-66532D01*
X54447Y-66588D01*
X54391Y-66532D01*
X54447Y-66475D01*
X54447Y-66588D01*
X55234Y-65407D02*
X55347Y-65407D01*
X55459Y-65463D01*
X55516Y-65519D01*
X55572Y-65632D01*
X55628Y-65857D01*
X55628Y-66138D01*
X55572Y-66363D01*
X55516Y-66475D01*
X55459Y-66532D01*
X55347Y-66588D01*
X55234Y-66588D01*
X55122Y-66532D01*
X55066Y-66475D01*
X55009Y-66363D01*
X54953Y-66138D01*
X54953Y-65857D01*
X55009Y-65632D01*
X55066Y-65519D01*
X55122Y-65463D01*
X55234Y-65407D01*
X56022Y-65407D02*
X56753Y-65407D01*
X56359Y-65857D01*
X56528Y-65857D01*
X56641Y-65913D01*
X56697Y-65969D01*
X56753Y-66082D01*
X56753Y-66363D01*
X56697Y-66475D01*
X56641Y-66532D01*
X56528Y-66588D01*
X56191Y-66588D01*
X56078Y-66532D01*
X56022Y-66475D01*
X57203Y-65519D02*
X57259Y-65463D01*
X57372Y-65407D01*
X57653Y-65407D01*
X57765Y-65463D01*
X57822Y-65519D01*
X57878Y-65632D01*
X57878Y-65744D01*
X57822Y-65913D01*
X57147Y-66588D01*
X57878Y-66588D01*
X58328Y-65407D02*
X58328Y-65632D01*
X58778Y-65407D02*
X58778Y-65632D01*
X60521Y-67038D02*
X60465Y-66982D01*
X60353Y-66813D01*
X60296Y-66700D01*
X60240Y-66532D01*
X60184Y-66250D01*
X60184Y-66025D01*
X60240Y-65744D01*
X60296Y-65575D01*
X60353Y-65463D01*
X60465Y-65294D01*
X60521Y-65238D01*
X60915Y-65519D02*
X60971Y-65463D01*
X61084Y-65407D01*
X61365Y-65407D01*
X61477Y-65463D01*
X61534Y-65519D01*
X61590Y-65632D01*
X61590Y-65744D01*
X61534Y-65913D01*
X60859Y-66588D01*
X61590Y-66588D01*
X62321Y-65407D02*
X62434Y-65407D01*
X62546Y-65463D01*
X62602Y-65519D01*
X62658Y-65632D01*
X62715Y-65857D01*
X62715Y-66138D01*
X62658Y-66363D01*
X62602Y-66475D01*
X62546Y-66532D01*
X62434Y-66588D01*
X62321Y-66588D01*
X62209Y-66532D01*
X62152Y-66475D01*
X62096Y-66363D01*
X62040Y-66138D01*
X62040Y-65857D01*
X62096Y-65632D01*
X62152Y-65519D01*
X62209Y-65463D01*
X62321Y-65407D01*
X64121Y-66588D02*
X64121Y-65407D01*
X64627Y-66588D02*
X64627Y-65969D01*
X64571Y-65857D01*
X64458Y-65800D01*
X64290Y-65800D01*
X64177Y-65857D01*
X64121Y-65913D01*
X65358Y-66588D02*
X65246Y-66532D01*
X65189Y-66475D01*
X65133Y-66363D01*
X65133Y-66025D01*
X65189Y-65913D01*
X65246Y-65857D01*
X65358Y-65800D01*
X65527Y-65800D01*
X65639Y-65857D01*
X65696Y-65913D01*
X65752Y-66025D01*
X65752Y-66363D01*
X65696Y-66475D01*
X65639Y-66532D01*
X65527Y-66588D01*
X65358Y-66588D01*
X66427Y-66588D02*
X66314Y-66532D01*
X66258Y-66419D01*
X66258Y-65407D01*
X67327Y-66532D02*
X67214Y-66588D01*
X66989Y-66588D01*
X66877Y-66532D01*
X66820Y-66419D01*
X66820Y-65969D01*
X66877Y-65857D01*
X66989Y-65800D01*
X67214Y-65800D01*
X67327Y-65857D01*
X67383Y-65969D01*
X67383Y-66082D01*
X66820Y-66194D01*
X67833Y-66532D02*
X67945Y-66588D01*
X68170Y-66588D01*
X68283Y-66532D01*
X68339Y-66419D01*
X68339Y-66363D01*
X68283Y-66250D01*
X68170Y-66194D01*
X68002Y-66194D01*
X67889Y-66138D01*
X67833Y-66025D01*
X67833Y-65969D01*
X67889Y-65857D01*
X68002Y-65800D01*
X68170Y-65800D01*
X68283Y-65857D01*
X68733Y-67038D02*
X68789Y-66982D01*
X68901Y-66813D01*
X68958Y-66700D01*
X69014Y-66532D01*
X69070Y-66250D01*
X69070Y-66025D01*
X69014Y-65744D01*
X68958Y-65575D01*
X68901Y-65463D01*
X68789Y-65294D01*
X68733Y-65238D01*
X41905Y-67444D02*
X41905Y-67894D01*
X41680Y-67669D02*
X42130Y-67669D01*
X43817Y-68147D02*
X43142Y-68147D01*
X43480Y-68147D02*
X43480Y-66966D01*
X43367Y-67135D01*
X43255Y-67247D01*
X43142Y-67303D01*
X44323Y-68034D02*
X44380Y-68091D01*
X44323Y-68147D01*
X44267Y-68091D01*
X44323Y-68034D01*
X44323Y-68147D01*
X45504Y-68147D02*
X44829Y-68147D01*
X45167Y-68147D02*
X45167Y-66966D01*
X45054Y-67135D01*
X44942Y-67247D01*
X44829Y-67303D01*
X46517Y-67359D02*
X46517Y-68147D01*
X46236Y-66910D02*
X45954Y-67753D01*
X46685Y-67753D01*
X47135Y-68147D02*
X47135Y-67359D01*
X47135Y-67472D02*
X47192Y-67416D01*
X47304Y-67359D01*
X47473Y-67359D01*
X47585Y-67416D01*
X47642Y-67528D01*
X47642Y-68147D01*
X47642Y-67528D02*
X47698Y-67416D01*
X47810Y-67359D01*
X47979Y-67359D01*
X48092Y-67416D01*
X48148Y-67528D01*
X48148Y-68147D01*
X48710Y-68147D02*
X48710Y-67359D01*
X48710Y-67472D02*
X48766Y-67416D01*
X48879Y-67359D01*
X49048Y-67359D01*
X49160Y-67416D01*
X49216Y-67528D01*
X49216Y-68147D01*
X49216Y-67528D02*
X49273Y-67416D01*
X49385Y-67359D01*
X49554Y-67359D01*
X49666Y-67416D01*
X49723Y-67528D01*
X49723Y-68147D01*
X52029Y-66910D02*
X51016Y-68428D01*
X53547Y-66966D02*
X53660Y-66966D01*
X53772Y-67022D01*
X53828Y-67078D01*
X53885Y-67191D01*
X53941Y-67416D01*
X53941Y-67697D01*
X53885Y-67922D01*
X53828Y-68034D01*
X53772Y-68091D01*
X53660Y-68147D01*
X53547Y-68147D01*
X53435Y-68091D01*
X53378Y-68034D01*
X53322Y-67922D01*
X53266Y-67697D01*
X53266Y-67416D01*
X53322Y-67191D01*
X53378Y-67078D01*
X53435Y-67022D01*
X53547Y-66966D01*
X54447Y-68034D02*
X54503Y-68091D01*
X54447Y-68147D01*
X54391Y-68091D01*
X54447Y-68034D01*
X54447Y-68147D01*
X55234Y-66966D02*
X55347Y-66966D01*
X55459Y-67022D01*
X55516Y-67078D01*
X55572Y-67191D01*
X55628Y-67416D01*
X55628Y-67697D01*
X55572Y-67922D01*
X55516Y-68034D01*
X55459Y-68091D01*
X55347Y-68147D01*
X55234Y-68147D01*
X55122Y-68091D01*
X55066Y-68034D01*
X55009Y-67922D01*
X54953Y-67697D01*
X54953Y-67416D01*
X55009Y-67191D01*
X55066Y-67078D01*
X55122Y-67022D01*
X55234Y-66966D01*
X56641Y-67359D02*
X56641Y-68147D01*
X56359Y-66910D02*
X56078Y-67753D01*
X56809Y-67753D01*
X57822Y-66966D02*
X57259Y-66966D01*
X57203Y-67528D01*
X57259Y-67472D01*
X57372Y-67416D01*
X57653Y-67416D01*
X57765Y-67472D01*
X57822Y-67528D01*
X57878Y-67641D01*
X57878Y-67922D01*
X57822Y-68034D01*
X57765Y-68091D01*
X57653Y-68147D01*
X57372Y-68147D01*
X57259Y-68091D01*
X57203Y-68034D01*
X58328Y-66966D02*
X58328Y-67191D01*
X58778Y-66966D02*
X58778Y-67191D01*
X60521Y-68597D02*
X60465Y-68541D01*
X60353Y-68372D01*
X60296Y-68259D01*
X60240Y-68091D01*
X60184Y-67809D01*
X60184Y-67584D01*
X60240Y-67303D01*
X60296Y-67135D01*
X60353Y-67022D01*
X60465Y-66853D01*
X60521Y-66797D01*
X61590Y-68147D02*
X60915Y-68147D01*
X61252Y-68147D02*
X61252Y-66966D01*
X61140Y-67135D01*
X61027Y-67247D01*
X60915Y-67303D01*
X62265Y-67472D02*
X62152Y-67416D01*
X62096Y-67359D01*
X62040Y-67247D01*
X62040Y-67191D01*
X62096Y-67078D01*
X62152Y-67022D01*
X62265Y-66966D01*
X62490Y-66966D01*
X62602Y-67022D01*
X62658Y-67078D01*
X62715Y-67191D01*
X62715Y-67247D01*
X62658Y-67359D01*
X62602Y-67416D01*
X62490Y-67472D01*
X62265Y-67472D01*
X62152Y-67528D01*
X62096Y-67584D01*
X62040Y-67697D01*
X62040Y-67922D01*
X62096Y-68034D01*
X62152Y-68091D01*
X62265Y-68147D01*
X62490Y-68147D01*
X62602Y-68091D01*
X62658Y-68034D01*
X62715Y-67922D01*
X62715Y-67697D01*
X62658Y-67584D01*
X62602Y-67528D01*
X62490Y-67472D01*
X64121Y-68147D02*
X64121Y-66966D01*
X64627Y-68147D02*
X64627Y-67528D01*
X64571Y-67416D01*
X64458Y-67359D01*
X64290Y-67359D01*
X64177Y-67416D01*
X64121Y-67472D01*
X65358Y-68147D02*
X65246Y-68091D01*
X65189Y-68034D01*
X65133Y-67922D01*
X65133Y-67584D01*
X65189Y-67472D01*
X65246Y-67416D01*
X65358Y-67359D01*
X65527Y-67359D01*
X65639Y-67416D01*
X65696Y-67472D01*
X65752Y-67584D01*
X65752Y-67922D01*
X65696Y-68034D01*
X65639Y-68091D01*
X65527Y-68147D01*
X65358Y-68147D01*
X66427Y-68147D02*
X66314Y-68091D01*
X66258Y-67978D01*
X66258Y-66966D01*
X67327Y-68091D02*
X67214Y-68147D01*
X66989Y-68147D01*
X66877Y-68091D01*
X66820Y-67978D01*
X66820Y-67528D01*
X66877Y-67416D01*
X66989Y-67359D01*
X67214Y-67359D01*
X67327Y-67416D01*
X67383Y-67528D01*
X67383Y-67641D01*
X66820Y-67753D01*
X67833Y-68091D02*
X67945Y-68147D01*
X68170Y-68147D01*
X68283Y-68091D01*
X68339Y-67978D01*
X68339Y-67922D01*
X68283Y-67809D01*
X68170Y-67753D01*
X68002Y-67753D01*
X67889Y-67697D01*
X67833Y-67584D01*
X67833Y-67528D01*
X67889Y-67416D01*
X68002Y-67359D01*
X68170Y-67359D01*
X68283Y-67416D01*
X68733Y-68597D02*
X68789Y-68541D01*
X68901Y-68372D01*
X68958Y-68259D01*
X69014Y-68091D01*
X69070Y-67809D01*
X69070Y-67584D01*
X69014Y-67303D01*
X68958Y-67135D01*
X68901Y-67022D01*
X68789Y-66853D01*
X68733Y-66797D01*
G54D12*
X41899Y-69785D02*
X41899Y-68671D01*
X40786Y-68671D01*
X40786Y-69785D01*
X41899Y-69785D01*
G54D13*
X43705Y-68919D02*
X43705Y-69706D01*
X43423Y-68469D02*
X43142Y-69312D01*
X43873Y-69312D01*
X44323Y-69593D02*
X44380Y-69650D01*
X44323Y-69706D01*
X44267Y-69650D01*
X44323Y-69593D01*
X44323Y-69706D01*
X45111Y-68525D02*
X45223Y-68525D01*
X45336Y-68581D01*
X45392Y-68637D01*
X45448Y-68750D01*
X45504Y-68975D01*
X45504Y-69256D01*
X45448Y-69481D01*
X45392Y-69593D01*
X45336Y-69650D01*
X45223Y-69706D01*
X45111Y-69706D01*
X44998Y-69650D01*
X44942Y-69593D01*
X44886Y-69481D01*
X44829Y-69256D01*
X44829Y-68975D01*
X44886Y-68750D01*
X44942Y-68637D01*
X44998Y-68581D01*
X45111Y-68525D01*
X46236Y-68525D02*
X46348Y-68525D01*
X46461Y-68581D01*
X46517Y-68637D01*
X46573Y-68750D01*
X46629Y-68975D01*
X46629Y-69256D01*
X46573Y-69481D01*
X46517Y-69593D01*
X46461Y-69650D01*
X46348Y-69706D01*
X46236Y-69706D01*
X46123Y-69650D01*
X46067Y-69593D01*
X46011Y-69481D01*
X45954Y-69256D01*
X45954Y-68975D01*
X46011Y-68750D01*
X46067Y-68637D01*
X46123Y-68581D01*
X46236Y-68525D01*
X47135Y-69706D02*
X47135Y-68919D01*
X47135Y-69031D02*
X47192Y-68975D01*
X47304Y-68919D01*
X47473Y-68919D01*
X47585Y-68975D01*
X47642Y-69087D01*
X47642Y-69706D01*
X47642Y-69087D02*
X47698Y-68975D01*
X47810Y-68919D01*
X47979Y-68919D01*
X48092Y-68975D01*
X48148Y-69087D01*
X48148Y-69706D01*
X48710Y-69706D02*
X48710Y-68919D01*
X48710Y-69031D02*
X48766Y-68975D01*
X48879Y-68919D01*
X49048Y-68919D01*
X49160Y-68975D01*
X49216Y-69087D01*
X49216Y-69706D01*
X49216Y-69087D02*
X49273Y-68975D01*
X49385Y-68919D01*
X49554Y-68919D01*
X49666Y-68975D01*
X49723Y-69087D01*
X49723Y-69706D01*
X52029Y-68469D02*
X51016Y-69987D01*
X53547Y-68525D02*
X53660Y-68525D01*
X53772Y-68581D01*
X53828Y-68637D01*
X53885Y-68750D01*
X53941Y-68975D01*
X53941Y-69256D01*
X53885Y-69481D01*
X53828Y-69593D01*
X53772Y-69650D01*
X53660Y-69706D01*
X53547Y-69706D01*
X53435Y-69650D01*
X53378Y-69593D01*
X53322Y-69481D01*
X53266Y-69256D01*
X53266Y-68975D01*
X53322Y-68750D01*
X53378Y-68637D01*
X53435Y-68581D01*
X53547Y-68525D01*
X54447Y-69593D02*
X54503Y-69650D01*
X54447Y-69706D01*
X54391Y-69650D01*
X54447Y-69593D01*
X54447Y-69706D01*
X55628Y-69706D02*
X54953Y-69706D01*
X55291Y-69706D02*
X55291Y-68525D01*
X55178Y-68694D01*
X55066Y-68806D01*
X54953Y-68862D01*
X56697Y-68525D02*
X56134Y-68525D01*
X56078Y-69087D01*
X56134Y-69031D01*
X56247Y-68975D01*
X56528Y-68975D01*
X56641Y-69031D01*
X56697Y-69087D01*
X56753Y-69200D01*
X56753Y-69481D01*
X56697Y-69593D01*
X56641Y-69650D01*
X56528Y-69706D01*
X56247Y-69706D01*
X56134Y-69650D01*
X56078Y-69593D01*
X57147Y-68525D02*
X57934Y-68525D01*
X57428Y-69706D01*
X58328Y-68525D02*
X58328Y-68750D01*
X58778Y-68525D02*
X58778Y-68750D01*
X60521Y-70156D02*
X60465Y-70100D01*
X60353Y-69931D01*
X60296Y-69818D01*
X60240Y-69650D01*
X60184Y-69368D01*
X60184Y-69144D01*
X60240Y-68862D01*
X60296Y-68694D01*
X60353Y-68581D01*
X60465Y-68412D01*
X60521Y-68356D01*
X61477Y-68919D02*
X61477Y-69706D01*
X61196Y-68469D02*
X60915Y-69312D01*
X61646Y-69312D01*
X62996Y-69706D02*
X62996Y-68525D01*
X63502Y-69706D02*
X63502Y-69087D01*
X63446Y-68975D01*
X63333Y-68919D01*
X63165Y-68919D01*
X63052Y-68975D01*
X62996Y-69031D01*
X64233Y-69706D02*
X64121Y-69650D01*
X64065Y-69593D01*
X64008Y-69481D01*
X64008Y-69144D01*
X64065Y-69031D01*
X64121Y-68975D01*
X64233Y-68919D01*
X64402Y-68919D01*
X64515Y-68975D01*
X64571Y-69031D01*
X64627Y-69144D01*
X64627Y-69481D01*
X64571Y-69593D01*
X64515Y-69650D01*
X64402Y-69706D01*
X64233Y-69706D01*
X65302Y-69706D02*
X65189Y-69650D01*
X65133Y-69537D01*
X65133Y-68525D01*
X66202Y-69650D02*
X66089Y-69706D01*
X65864Y-69706D01*
X65752Y-69650D01*
X65696Y-69537D01*
X65696Y-69087D01*
X65752Y-68975D01*
X65864Y-68919D01*
X66089Y-68919D01*
X66202Y-68975D01*
X66258Y-69087D01*
X66258Y-69200D01*
X65696Y-69312D01*
X66708Y-69650D02*
X66820Y-69706D01*
X67045Y-69706D01*
X67158Y-69650D01*
X67214Y-69537D01*
X67214Y-69481D01*
X67158Y-69368D01*
X67045Y-69312D01*
X66877Y-69312D01*
X66764Y-69256D01*
X66708Y-69144D01*
X66708Y-69087D01*
X66764Y-68975D01*
X66877Y-68919D01*
X67045Y-68919D01*
X67158Y-68975D01*
X67608Y-70156D02*
X67664Y-70100D01*
X67777Y-69931D01*
X67833Y-69818D01*
X67889Y-69650D01*
X67945Y-69368D01*
X67945Y-69144D01*
X67889Y-68862D01*
X67833Y-68694D01*
X67777Y-68581D01*
X67664Y-68412D01*
X67608Y-68356D01*
M02*
