M48
;DRILL file {Pcbnew (2013-07-07 BZR 4022)-stable} date 30-Oct-13 5:57:45 PM
;FORMAT={-:-/ absolute / metric / decimal}
FMAT,2
METRIC,TZ
T1C0.600
T2C0.813
T3C1.143
T4C4.000
%
G90
G05
M71
T1
X115.179Y-122.738
X115.179Y-125.278
X115.179Y-127.818
X115.179Y-130.358
X115.179Y-132.898
X115.179Y-135.438
X115.179Y-137.978
X115.179Y-140.518
X123.175Y-148.575
X125.715Y-148.575
X152.217Y-123.49
X152.217Y-126.03
X152.217Y-128.57
X152.217Y-131.11
X152.217Y-133.65
X152.217Y-136.19
X152.217Y-138.73
X152.217Y-141.27
T2
X120.564Y-122.748
X120.564Y-125.288
X120.564Y-127.828
X120.564Y-130.368
X120.564Y-132.908
X120.564Y-135.448
X120.564Y-137.988
X120.564Y-140.528
X120.564Y-143.068
X128.184Y-122.748
X128.184Y-125.288
X128.184Y-127.828
X128.184Y-130.368
X128.184Y-132.908
X128.184Y-135.448
X128.184Y-137.988
X128.184Y-140.528
X128.184Y-143.068
X129.835Y-148.935
X132.375Y-148.935
T3
X131.206Y-121.407
X131.267Y-127.493
X131.282Y-124.409
X131.282Y-130.774
X131.298Y-140.569
X131.318Y-134.076
X131.354Y-143.947
X131.384Y-137.465
X136.495Y-149.2
X146.446Y-121.407
X146.507Y-127.493
X146.522Y-124.409
X146.522Y-130.774
X146.538Y-140.569
X146.558Y-134.076
X146.594Y-143.947
X146.624Y-137.465
X151.735Y-149.2
T4
X110.109Y-119.761
X110.109Y-151.425
X156.708Y-119.761
X156.708Y-151.425
T0
M30
