G04 (created by PCBNEW (2013-07-07 BZR 4022)-stable) date 30-Oct-13 5:57:55 PM*
%MOIN*%
G04 Gerber Fmt 3.4, Leading zero omitted, Abs format*
%FSLAX34Y34*%
G01*
G70*
G90*
G04 APERTURE LIST*
%ADD10C,0.00590551*%
%ADD11C,0.0748031*%
%ADD12R,0.0669291X0.0669291*%
%ADD13C,0.0669291*%
%ADD14R,0.0708661X0.0708661*%
%ADD15C,0.0708661*%
%ADD16R,0.0629921X0.0629921*%
%ADD17C,0.0629921*%
%ADD18C,0.066*%
%ADD19C,0.16*%
%ADD20C,0.0393701*%
%ADD21C,0.0472441*%
G04 APERTURE END LIST*
G54D10*
G54D11*
X51700Y-52786D03*
X57700Y-52786D03*
G54D12*
X59928Y-48618D03*
G54D13*
X59928Y-49618D03*
X59928Y-50618D03*
X59928Y-51618D03*
X59928Y-52618D03*
X59928Y-53618D03*
X59928Y-54618D03*
X59928Y-55618D03*
G54D12*
X45346Y-55322D03*
G54D13*
X45346Y-54322D03*
X45346Y-53322D03*
X45346Y-52322D03*
X45346Y-51322D03*
X45346Y-50322D03*
X45346Y-49322D03*
X45346Y-48322D03*
G54D14*
X49494Y-58494D03*
G54D15*
X48494Y-58494D03*
G54D16*
X47466Y-48326D03*
G54D17*
X47466Y-49326D03*
X47466Y-50326D03*
X47466Y-51326D03*
X47466Y-52326D03*
X47466Y-53326D03*
X47466Y-54326D03*
X47466Y-55326D03*
X47466Y-56326D03*
X50466Y-56326D03*
X50466Y-55326D03*
X50466Y-54326D03*
X50466Y-53326D03*
X50466Y-52326D03*
X50466Y-51326D03*
X50466Y-50326D03*
X50466Y-49326D03*
X50466Y-48326D03*
G54D18*
X51116Y-58636D03*
X52116Y-58636D03*
G54D11*
X51656Y-47798D03*
X57656Y-47798D03*
X51686Y-48980D03*
X57686Y-48980D03*
X51680Y-50194D03*
X57680Y-50194D03*
X51686Y-51486D03*
X57686Y-51486D03*
X51726Y-54120D03*
X57726Y-54120D03*
X51692Y-55342D03*
X57692Y-55342D03*
X51714Y-56672D03*
X57714Y-56672D03*
X59738Y-58740D03*
X53738Y-58740D03*
G54D19*
X43350Y-47150D03*
X43350Y-59616D03*
X61696Y-59616D03*
X61696Y-47150D03*
G54D20*
X48494Y-58494D02*
X48494Y-59494D01*
X56936Y-58740D02*
X59738Y-58740D01*
X55902Y-59774D02*
X56936Y-58740D01*
X48774Y-59774D02*
X55902Y-59774D01*
X48494Y-59494D02*
X48774Y-59774D01*
X47466Y-56326D02*
X47466Y-57466D01*
X47466Y-57466D02*
X48494Y-58494D01*
X57714Y-56672D02*
X58874Y-56672D01*
X58874Y-56672D02*
X59928Y-55618D01*
X50466Y-55326D02*
X50466Y-55424D01*
X50466Y-55424D02*
X51714Y-56672D01*
X50466Y-50326D02*
X51548Y-50326D01*
X51548Y-50326D02*
X51680Y-50194D01*
X45346Y-48322D02*
X47462Y-48322D01*
G54D21*
X47462Y-48322D02*
X47466Y-48326D01*
G54D20*
X50466Y-54326D02*
X50676Y-54326D01*
X50676Y-54326D02*
X51692Y-55342D01*
X50466Y-53326D02*
X50932Y-53326D01*
X50932Y-53326D02*
X51726Y-54120D01*
X50466Y-52326D02*
X51240Y-52326D01*
X51240Y-52326D02*
X51700Y-52786D01*
X50466Y-51326D02*
X51526Y-51326D01*
X51526Y-51326D02*
X51686Y-51486D01*
X50466Y-49326D02*
X51340Y-49326D01*
X51340Y-49326D02*
X51686Y-48980D01*
X57680Y-50194D02*
X59504Y-50194D01*
X59504Y-50194D02*
X59928Y-50618D01*
X50466Y-48326D02*
X51128Y-48326D01*
X51128Y-48326D02*
X51656Y-47798D01*
X45346Y-49322D02*
X47462Y-49322D01*
G54D21*
X47462Y-49322D02*
X47466Y-49326D01*
G54D20*
X45346Y-50322D02*
X47462Y-50322D01*
G54D21*
X47462Y-50322D02*
X47466Y-50326D01*
G54D20*
X45346Y-51322D02*
X47462Y-51322D01*
G54D21*
X47462Y-51322D02*
X47466Y-51326D01*
G54D20*
X45346Y-52322D02*
X47462Y-52322D01*
G54D21*
X47462Y-52322D02*
X47466Y-52326D01*
G54D20*
X45346Y-53322D02*
X47462Y-53322D01*
G54D21*
X47462Y-53322D02*
X47466Y-53326D01*
G54D20*
X45346Y-54322D02*
X47462Y-54322D01*
G54D21*
X47462Y-54322D02*
X47466Y-54326D01*
G54D20*
X45346Y-55322D02*
X47462Y-55322D01*
G54D21*
X47462Y-55322D02*
X47466Y-55326D01*
G54D20*
X57692Y-55342D02*
X59204Y-55342D01*
X59204Y-55342D02*
X59928Y-54618D01*
X57726Y-54120D02*
X59426Y-54120D01*
X59426Y-54120D02*
X59928Y-53618D01*
X57700Y-52786D02*
X59760Y-52786D01*
X59760Y-52786D02*
X59928Y-52618D01*
X57686Y-51486D02*
X59796Y-51486D01*
X59796Y-51486D02*
X59928Y-51618D01*
X57686Y-48980D02*
X58790Y-48980D01*
X59428Y-49618D02*
X59928Y-49618D01*
X58790Y-48980D02*
X59428Y-49618D01*
X57656Y-47798D02*
X59108Y-47798D01*
X59108Y-47798D02*
X59928Y-48618D01*
X52116Y-58636D02*
X53616Y-58618D01*
X53616Y-58618D02*
X53738Y-58740D01*
X49494Y-58494D02*
X50970Y-58490D01*
X50970Y-58490D02*
X51116Y-58636D01*
X49494Y-58494D02*
X49494Y-56764D01*
X49932Y-56326D02*
X50466Y-56326D01*
X49494Y-56764D02*
X49932Y-56326D01*
M02*
